<mxfile host="www.draw.io" modified="2020-03-04T03:53:00.357Z" agent="Mozilla/5.0 (Windows NT 10.0; WOW64) AppleWebKit/537.36 (KHTML, like Gecko) Chrome/80.0.3987.132 Safari/537.36" etag="cYFtk7yPp1LFeOw1v4Xx" version="12.7.9" type="github">
  <diagram name="Page-1" id="0783ab3e-0a74-02c8-0abd-f7b4e66b4bec">
    <mxGraphModel dx="1312" dy="715" grid="1" gridSize="10" guides="1" tooltips="1" connect="1" arrows="1" fold="1" page="1" pageScale="1" pageWidth="850" pageHeight="1100" background="#ffffff" math="0" shadow="0">
      <root>
        <mxCell id="0" />
        <mxCell id="1" parent="0" />
        <mxCell id="1c1d494c118603dd-1" value="DIY Mini Program Login Flow Diagram" style="swimlane;html=1;childLayout=stackLayout;startSize=20;rounded=0;shadow=0;comic=0;labelBackgroundColor=none;strokeWidth=1;fontFamily=Verdana;fontSize=12;align=center;" parent="1" vertex="1">
          <mxGeometry width="960" height="1010" as="geometry" />
        </mxCell>
        <mxCell id="1c1d494c118603dd-2" value="front_end" style="swimlane;html=1;startSize=20;" parent="1c1d494c118603dd-1" vertex="1">
          <mxGeometry y="20" width="320" height="990" as="geometry" />
        </mxCell>
        <mxCell id="7PXRdTP2mNgVB09aPx2Q-12" style="edgeStyle=orthogonalEdgeStyle;rounded=0;orthogonalLoop=1;jettySize=auto;html=1;entryX=0.5;entryY=0;entryDx=0;entryDy=0;fillColor=#bac8d3;strokeColor=#23445d;" edge="1" parent="1c1d494c118603dd-2" source="7PXRdTP2mNgVB09aPx2Q-1" target="7PXRdTP2mNgVB09aPx2Q-9">
          <mxGeometry relative="1" as="geometry" />
        </mxCell>
        <mxCell id="7PXRdTP2mNgVB09aPx2Q-1" value="" style="strokeWidth=2;html=1;shape=mxgraph.flowchart.start_2;whiteSpace=wrap;fillColor=#bac8d3;strokeColor=#23445d;" vertex="1" parent="1c1d494c118603dd-2">
          <mxGeometry x="39.5" y="40" width="20" height="20" as="geometry" />
        </mxCell>
        <mxCell id="7PXRdTP2mNgVB09aPx2Q-2" value="grant auth?" style="strokeWidth=2;html=1;shape=mxgraph.flowchart.decision;whiteSpace=wrap;fillColor=#bac8d3;strokeColor=#23445d;" vertex="1" parent="1c1d494c118603dd-2">
          <mxGeometry x="4.5" y="250" width="90" height="30" as="geometry" />
        </mxCell>
        <mxCell id="7PXRdTP2mNgVB09aPx2Q-17" style="edgeStyle=orthogonalEdgeStyle;rounded=0;orthogonalLoop=1;jettySize=auto;html=1;entryX=0.5;entryY=0;entryDx=0;entryDy=0;fillColor=#bac8d3;strokeColor=#23445d;" edge="1" parent="1c1d494c118603dd-2" source="7PXRdTP2mNgVB09aPx2Q-9" target="7PXRdTP2mNgVB09aPx2Q-16">
          <mxGeometry relative="1" as="geometry" />
        </mxCell>
        <mxCell id="7PXRdTP2mNgVB09aPx2Q-9" value="获取用户登陆凭证" style="rounded=0;whiteSpace=wrap;html=1;fillColor=#bac8d3;strokeColor=#23445d;" vertex="1" parent="1c1d494c118603dd-2">
          <mxGeometry x="9" y="90" width="81" height="40" as="geometry" />
        </mxCell>
        <mxCell id="7PXRdTP2mNgVB09aPx2Q-18" style="edgeStyle=orthogonalEdgeStyle;rounded=0;orthogonalLoop=1;jettySize=auto;html=1;fillColor=#bac8d3;strokeColor=#23445d;" edge="1" parent="1c1d494c118603dd-2" source="7PXRdTP2mNgVB09aPx2Q-16" target="7PXRdTP2mNgVB09aPx2Q-2">
          <mxGeometry relative="1" as="geometry" />
        </mxCell>
        <mxCell id="7PXRdTP2mNgVB09aPx2Q-16" value="发起用户信息授权" style="rounded=0;whiteSpace=wrap;html=1;fillColor=#bac8d3;strokeColor=#23445d;" vertex="1" parent="1c1d494c118603dd-2">
          <mxGeometry x="9" y="170" width="81" height="40" as="geometry" />
        </mxCell>
        <mxCell id="1c1d494c118603dd-3" value="back_end" style="swimlane;html=1;startSize=20;" parent="1c1d494c118603dd-1" vertex="1">
          <mxGeometry x="320" y="20" width="320" height="990" as="geometry" />
        </mxCell>
        <mxCell id="7PXRdTP2mNgVB09aPx2Q-7" value="解密获取用户openId &amp;amp; session key, 返回token" style="rounded=0;whiteSpace=wrap;html=1;fillColor=#bac8d3;strokeColor=#23445d;" vertex="1" parent="1c1d494c118603dd-3">
          <mxGeometry x="100" y="85" width="120" height="50" as="geometry" />
        </mxCell>
        <mxCell id="1c1d494c118603dd-4" value="crm" style="swimlane;html=1;startSize=20;" parent="1c1d494c118603dd-1" vertex="1">
          <mxGeometry x="640" y="20" width="320" height="990" as="geometry" />
        </mxCell>
        <mxCell id="7PXRdTP2mNgVB09aPx2Q-13" style="edgeStyle=orthogonalEdgeStyle;rounded=0;orthogonalLoop=1;jettySize=auto;html=1;entryX=0;entryY=0.5;entryDx=0;entryDy=0;fillColor=#bac8d3;strokeColor=#23445d;" edge="1" parent="1c1d494c118603dd-1" source="7PXRdTP2mNgVB09aPx2Q-9" target="7PXRdTP2mNgVB09aPx2Q-7">
          <mxGeometry relative="1" as="geometry" />
        </mxCell>
      </root>
    </mxGraphModel>
  </diagram>
</mxfile>
